HIERARCHY
ROOT Hips
{
	OFFSET -3.958830 18.904000 13.208200
	CHANNELS 6 Xposition Yposition Zposition Zrotation Yrotation Xrotation 
	JOINT LHipJoint
	{
		OFFSET 0.000000 0.000000 0.000000
		CHANNELS 3 Zrotation Yrotation Xrotation
		JOINT LeftUpLeg
		{
			OFFSET 1.800000 -1.400000 0.085000
			CHANNELS 3 Zrotation Yrotation Xrotation
			JOINT LeftLeg
			{
				OFFSET 2.215000 -6.000000 0.000000
				CHANNELS 3 Zrotation Yrotation Xrotation
				JOINT LeftFoot
				{
					OFFSET 2.500000 -6.900000 0.000000
					CHANNELS 3 Zrotation Yrotation Xrotation
					JOINT LeftToeBase
					{
						OFFSET 0.200000 -0.500000 1.950000
						CHANNELS 3 Zrotation Yrotation Xrotation
						End Site
						{
							OFFSET 0.000000 0.000000 0.000000
						}
					}
				}
			}
		}
	}
	JOINT RHipJoint
	{
		OFFSET 0.000000 0.000000 0.000000
		CHANNELS 3 Zrotation Yrotation Xrotation
		JOINT RightUpLeg
		{
			OFFSET -1.800000 -1.400000 0.085000
			CHANNELS 3 Zrotation Yrotation Xrotation
			JOINT RightLeg
			{
				OFFSET -2.215000 -6.000000 0.000000
				CHANNELS 3 Zrotation Yrotation Xrotation
				JOINT RightFoot
				{
					OFFSET -2.500000 -6.900000 0.000000
					CHANNELS 3 Zrotation Yrotation Xrotation
					JOINT RightToeBase
					{
						OFFSET -0.200000 -0.500000 1.950000
						CHANNELS 3 Zrotation Yrotation Xrotation
						End Site
						{
							OFFSET 0.000000 0.000000 0.000000
						}
					}
				}
			}
		}
	}
	JOINT LowerBack
	{
		OFFSET 0.000000 0.000000 0.000000
		CHANNELS 3 Zrotation Yrotation Xrotation
		JOINT Spine
		{
			OFFSET -0.087000 1.940000 -0.288900
			CHANNELS 3 Zrotation Yrotation Xrotation
			JOINT Spine1
			{
				OFFSET 0.000000 1.950000 0.060000
				CHANNELS 3 Zrotation Yrotation Xrotation
				JOINT Neck
				{
					OFFSET 0.000000 0.000000 0.000000
					CHANNELS 3 Zrotation Yrotation Xrotation
					JOINT Neck1
					{
						OFFSET 0.000000 1.600000 0.340000
						CHANNELS 3 Zrotation Yrotation Xrotation
						JOINT Head
						{
							OFFSET 0.000000 1.667000 -0.240000
							CHANNELS 3 Zrotation Yrotation Xrotation
							End Site
							{
								OFFSET 0.000000 0.000000 0.000000
							}
						}
					}
				}
				JOINT LeftShoulder
				{
					OFFSET 0.000000 0.000000 0.000000
					CHANNELS 3 Zrotation Yrotation Xrotation
					JOINT LeftArm
					{
						OFFSET 2.700000 1.550000 -0.730000
						CHANNELS 3 Zrotation Yrotation Xrotation
						JOINT LeftForeArm
						{
							OFFSET 5.450000 0.000000 0.000000
							CHANNELS 3 Zrotation Yrotation Xrotation
							JOINT LeftHand
							{
								OFFSET 3.450000 0.000000 0.000000
								CHANNELS 3 Zrotation Yrotation Xrotation
								JOINT LeftHandIndex1
								{
									OFFSET 0.750000 0.000000 0.000000
									CHANNELS 3 Zrotation Yrotation Xrotation
									End Site
									{
										OFFSET 0.000000 0.000000 0.000000
									}
								}
							}
						}
					}
				}
				JOINT RightShoulder
				{
					OFFSET 0.000000 0.000000 0.000000
					CHANNELS 3 Zrotation Yrotation Xrotation
					JOINT RightArm
					{
						OFFSET -2.700000 1.550000 -0.730000
						CHANNELS 3 Zrotation Yrotation Xrotation
						JOINT RightForeArm
						{
							OFFSET -5.450000 0.000000 0.000000
							CHANNELS 3 Zrotation Yrotation Xrotation
							JOINT RightHand
							{
								OFFSET -3.450000 0.000000 0.000000
								CHANNELS 3 Zrotation Yrotation Xrotation
								JOINT RightHandIndex1
								{
									OFFSET -0.750000 0.000000 0.000000
									CHANNELS 3 Zrotation Yrotation Xrotation
									End Site
									{
										OFFSET 0.000000 0.000000 0.000000
									}
								}
							}
						}
					}
				}
			}
		}
	}
}
MOTION
Frames: 13
Frame Time: 0.016667
-1.101820 16.281000 -3.634010 -3.190306 -25.923807 0.096173 -15.295689 12.533566 4.161254 22.428121 -4.050919 -21.288169 -17.741532 20.137927 42.939652 0.939724 10.402322 0.664713 0.492270 0.485640 0.470730 18.313873 -9.445764 3.136375 -14.569004 3.386693 -39.450916 2.715953 -6.544193 32.978847 -0.384971 -3.931815 2.720042 0.236370 -0.365770 0.035230 -3.444921 -2.811227 -8.406320 2.030336 -4.031041 29.350825 -10.772553 -3.194130 1.542285 1.534540 -8.654764 -7.961645 -18.810317 11.555749 27.945880 -4.972590 9.433270 -24.313300 -12.967140 8.694086 -2.691625 -26.673260 1.041688 -7.889032 -15.689259 -81.332389 9.926227 -3.301175 3.418235 0.497570 -0.293070 0.375770 0.011780 9.849843 -4.775974 6.567171 59.745180 -19.678286 -16.842952 102.272854 56.550041 50.212364 2.357073 -1.853724 0.019290 0.109280 -0.181470 -0.208950 
-1.167090 16.200940 -3.637450 -3.616446 -26.637542 -0.923183 -15.314001 12.390343 4.221353 24.162167 -4.003889 -20.741896 -18.021958 21.378541 44.862406 1.052030 10.911178 0.503743 0.502760 0.497880 0.481990 18.332104 -9.337332 3.201519 -14.551711 3.852708 -40.029697 2.912250 -7.338995 36.838108 -0.492809 -4.571468 2.493058 0.242830 -0.373270 0.037020 -3.487172 -2.740658 -8.515726 1.735202 -4.119561 31.119824 -11.018674 -3.423974 0.986471 1.373942 -8.693993 -7.700872 -19.219692 11.655960 28.551195 -5.024150 9.414500 -24.468640 -12.449122 9.630912 -3.255213 -23.648287 1.014030 -7.349828 -12.381501 -82.842809 7.740897 -3.310577 3.413353 0.507100 -0.299180 0.386890 0.009390 9.613579 -5.926519 6.553458 58.506688 -21.594426 -16.868266 107.096177 56.111126 53.923076 2.319116 -1.868956 0.021790 0.115490 -0.181890 -0.211490 
-1.230670 16.146860 -3.628550 -4.233289 -27.257905 -1.560921 -15.333235 12.365315 4.180793 25.330143 -3.879047 -19.950946 -17.392462 21.844498 46.244876 1.103219 11.159991 0.426354 0.501990 0.498780 0.481260 18.335368 -9.232974 3.293678 -14.066135 4.473483 -40.552317 2.939854 -7.970245 40.237358 -0.590365 -5.137063 2.303941 0.244030 -0.371100 0.035800 -3.486207 -2.799288 -8.574590 1.566259 -4.228287 32.169092 -10.894475 -3.630507 0.358476 1.265931 -8.902915 -7.383007 -20.012683 11.930087 28.922320 -5.362970 9.449740 -24.120400 -12.451142 10.601520 -3.732264 -22.425435 0.981755 -7.059423 -8.356527 -83.613014 4.675372 -3.319718 3.401795 0.505080 -0.295950 0.385260 0.007710 9.803657 -6.941822 6.367670 57.136152 -22.937538 -16.794162 109.024698 55.820810 55.461880 2.294811 -1.881591 0.021460 0.119790 -0.177760 -0.210950 
-1.292810 16.119700 -3.614400 -4.796522 -28.244550 -1.787961 -15.352160 12.367289 4.128913 26.148167 -3.719410 -19.229783 -16.774123 22.120570 47.195138 1.141620 11.319495 0.384074 0.497740 0.497210 0.477630 18.331865 -9.146148 3.375885 -13.290594 5.103120 -40.909068 2.972412 -8.313387 42.360960 -0.653683 -5.484794 2.196207 0.245970 -0.357460 0.033750 -3.473057 -2.861389 -8.601521 1.208624 -4.406324 32.331215 -10.920277 -3.995903 -0.236503 1.174204 -9.065854 -6.930336 -20.621104 12.752524 29.244865 -5.737900 9.970780 -23.404520 -12.784504 11.608608 -4.046837 -22.198864 1.594909 -7.116616 -1.660087 -84.197082 -0.815726 -3.328473 3.375359 0.492630 -0.282730 0.376340 0.010980 10.297691 -8.056172 5.828998 55.940467 -23.072512 -16.337526 107.817866 55.859832 54.817651 2.294721 -1.887136 0.018130 0.126320 -0.175410 -0.207970 
-1.351220 16.112040 -3.596480 -5.157159 -29.328592 -1.629820 -15.350885 12.396572 4.050903 26.438371 -3.547859 -18.656993 -16.033382 22.004190 47.566389 1.147281 11.330924 0.389666 0.487390 0.486630 0.460790 18.334559 -9.126851 3.441141 -12.442886 5.592493 -41.128129 2.801019 -8.289410 43.225389 -0.667601 -5.600700 2.169547 0.245070 -0.331520 0.032970 -3.490822 -2.854519 -8.584612 0.916320 -4.656991 31.791604 -11.368715 -4.490622 -0.987785 1.107918 -9.296395 -6.422313 -21.241409 13.768243 29.304552 -5.707060 10.486850 -22.173240 -13.297429 12.759417 -4.334660 -22.674013 2.483356 -7.363394 5.186590 -84.109177 -6.443219 -3.337732 3.348313 0.471630 -0.262130 0.355120 0.017810 10.922575 -9.330170 5.190685 55.214761 -22.909338 -15.713896 105.363994 55.467509 52.814211 2.294566 -1.906930 0.013430 0.128210 -0.169620 -0.200440 
-1.408650 16.121310 -3.577320 -5.514243 -30.146855 -1.082547 -15.386317 12.441699 4.002370 26.773463 -3.352486 -18.477681 -15.543561 21.838063 47.469540 1.135917 11.296533 0.410386 0.475270 0.474050 0.438330 18.312133 -9.038356 3.494354 -11.621150 6.070517 -41.421572 2.601686 -8.201323 43.858054 -0.670587 -5.672616 2.157706 0.245970 -0.295910 0.030950 -3.411943 -3.011196 -8.573214 0.266965 -4.653054 30.638495 -11.091783 -4.677592 -1.590070 0.916915 -9.596691 -5.900350 -21.935023 14.413842 28.845786 -5.337440 10.564090 -21.008980 -13.914598 14.001836 -4.588260 -24.587554 2.713717 -7.543541 7.878817 -83.505291 -8.522546 -3.351220 3.335659 0.446640 -0.239520 0.327780 0.027130 11.915608 -10.423733 4.547211 54.781036 -22.755900 -15.430141 102.043009 55.510116 50.430121 2.305539 -1.905136 0.006130 0.136710 -0.161460 -0.188380 
-1.456040 16.146040 -3.562480 -5.679454 -30.483132 -0.601548 -15.411376 12.506413 3.947531 26.728267 -3.249046 -18.503793 -14.966646 21.459162 47.253000 1.104762 11.192351 0.448724 0.475040 0.477040 0.425520 18.291963 -8.987193 3.513364 -11.322478 6.227467 -41.437929 2.928942 -8.283396 43.816834 -0.665528 -5.684093 2.160297 0.254900 -0.271020 0.026640 -3.341876 -3.170710 -8.533317 -0.229196 -4.823816 29.506822 -10.920264 -5.006179 -2.031030 0.701035 -10.029970 -5.408964 -22.970648 15.179404 28.083324 -5.145580 10.613240 -20.389380 -14.374982 15.388916 -4.814573 -26.942188 2.638812 -7.581936 6.126043 -82.388631 -6.906868 -3.364271 3.351127 0.427970 -0.226570 0.310770 0.038610 12.805070 -11.630749 3.891885 54.966847 -22.631038 -15.253671 100.101419 55.614813 49.287098 2.315994 -1.897081 0.001640 0.149550 -0.160290 -0.176940 
-1.494730 16.174890 -3.546620 -5.958777 -30.624095 -0.004724 -15.440363 12.567975 3.899523 26.781293 -3.106529 -18.503446 -14.604891 21.054876 46.608172 1.058999 11.043354 0.496348 0.470870 0.476210 0.412230 18.266066 -8.934462 3.526138 -11.415951 6.300029 -41.191105 4.152542 -8.724013 43.401312 -0.660976 -5.723252 2.152040 0.262130 -0.248310 0.024640 -3.255316 -3.327650 -8.499384 -0.789413 -5.042873 28.251279 -10.651032 -5.392751 -2.455268 0.566062 -10.189974 -4.861257 -23.199940 15.896108 27.553203 -4.981900 10.943510 -19.818620 -15.312424 16.298128 -5.007603 -28.995837 3.134753 -8.094796 8.572724 -80.617842 -8.506416 -3.368078 3.322083 0.411260 -0.210240 0.293800 0.046390 14.050483 -12.511009 3.259311 55.155633 -22.098995 -14.966836 98.449846 56.388644 49.008190 2.344068 -1.866541 -0.004780 0.156260 -0.157240 -0.170310 
-1.531650 16.202520 -3.538120 -6.282122 -30.846541 0.455561 -15.485751 12.581785 3.902722 27.076541 -2.989566 -18.663252 -14.635835 21.051163 46.313572 1.046849 11.022392 0.504650 0.470270 0.479290 0.404730 18.235278 -8.840331 3.535334 -11.384656 6.494515 -40.898543 5.423982 -9.301139 43.519724 -0.684623 -5.862821 2.111716 0.268480 -0.231050 0.021980 -3.149341 -3.496118 -8.495897 -1.592336 -5.181053 27.308707 -10.226795 -5.686716 -2.777171 0.424070 -10.284630 -4.451776 -23.272035 16.583812 27.000559 -4.745130 11.330080 -19.672120 -16.129940 16.882229 -5.071967 -30.816767 3.826430 -8.784904 13.579068 -80.361626 -12.346435 -3.357329 3.261907 0.402410 -0.200370 0.283450 0.052420 15.233780 -13.027567 2.726059 55.455339 -21.421484 -14.775550 96.664857 57.203398 48.561213 2.375674 -1.825116 -0.010100 0.165370 -0.155460 -0.165760 
-1.561240 16.229370 -3.539850 -6.591150 -31.046591 0.583162 -15.529608 12.552399 3.951552 27.323663 -2.907982 -18.954983 -15.090442 21.344496 46.246586 1.055108 11.087747 0.479395 0.485990 0.502760 0.413170 18.202382 -8.779329 3.509842 -11.389721 6.661986 -39.867746 7.500541 -10.280221 43.632840 -0.742910 -6.107236 2.030989 0.286200 -0.229730 0.027100 -3.042906 -3.573895 -8.514505 -2.408851 -4.960196 26.591117 -9.897423 -5.573508 -2.864160 0.319145 -9.948393 -3.854297 -22.460123 16.855628 27.595459 -4.487990 11.768510 -19.718010 -17.092642 17.231490 -5.519122 -31.583434 3.303779 -9.213820 20.252859 -79.841405 -17.066914 -3.336299 3.172915 0.400370 -0.193660 0.288580 0.058820 16.374793 -13.586413 2.287384 56.026963 -20.881135 -14.640007 96.688884 58.343414 49.682392 2.408565 -1.776717 -0.008940 0.166480 -0.163530 -0.166720 
-1.607510 16.253220 -3.548450 -7.187693 -31.681129 1.035843 -15.556318 12.631404 3.982791 27.490496 -2.766007 -19.788881 -13.810086 21.187818 47.545605 1.067496 11.147573 0.458132 0.480050 0.497350 0.406520 18.170843 -8.827618 3.409315 -9.711348 7.016504 -38.284905 7.136538 -9.822357 43.160168 -0.725629 -5.924626 2.106475 0.278590 -0.225680 0.026960 -2.935053 -3.650613 -8.479408 -3.223016 -4.568269 26.026727 -9.375727 -5.253405 -3.313784 0.316529 -9.720210 -3.683723 -21.829616 17.136579 27.638317 -4.007810 12.220530 -19.567280 -17.201960 17.670821 -5.629804 -32.687554 3.794656 -9.985810 28.897075 -79.843565 -23.334414 -3.290280 3.024856 0.400750 -0.193730 0.288560 0.061760 16.550385 -13.974729 2.174141 57.150853 -20.945911 -14.953915 97.483873 59.132851 50.994228 2.438193 -1.731968 -0.008710 0.161730 -0.165250 -0.164600 
-1.651740 16.245120 -3.539800 -7.663043 -31.305180 1.590410 -15.603238 12.486965 4.030871 29.110361 -2.354394 -19.634564 -14.604304 21.675370 46.652802 1.078491 11.191726 0.440854 0.477070 0.499010 0.396110 18.164989 -8.692583 3.459676 -10.918337 7.086445 -38.473348 9.520224 -11.162644 43.560319 -0.792259 -6.313332 1.977797 0.280760 -0.211580 0.029110 -2.909273 -3.606230 -8.545463 -3.335762 -4.351591 25.012591 -9.541505 -5.067366 -3.375620 0.395905 -9.293402 -3.295254 -20.569752 17.065459 27.926633 -3.168040 12.458470 -19.028610 -16.672013 18.614479 -5.937237 -33.314113 3.717593 -10.346580 38.386609 -81.027944 -30.709028 -3.236818 2.825207 0.388900 -0.182100 0.279540 0.066450 15.831316 -15.141142 2.031842 58.258619 -21.359993 -15.008803 99.586643 59.477555 53.178972 2.432080 -1.723211 -0.008520 0.156950 -0.165850 -0.159510 
-1.699100 16.227720 -3.534890 -8.222445 -31.119815 2.232367 -15.623291 12.458584 3.988684 30.538189 -1.898976 -19.077724 -14.232345 21.457131 45.723295 1.047440 11.057037 0.478033 0.482770 0.509090 0.388360 18.169241 -8.620952 3.513568 -11.473274 7.207818 -38.984287 10.217330 -11.494619 43.527246 -0.808989 -6.392024 1.953071 0.282850 -0.206580 0.029410 -2.912720 -3.597511 -8.551022 -3.465144 -4.533663 24.332952 -9.563392 -5.339413 -3.683107 0.325483 -9.328415 -3.189912 -20.275290 17.305859 27.255899 -2.541670 12.523350 -19.191900 -15.392865 19.662845 -5.755985 -34.472415 5.202942 -11.417902 52.230397 -82.434491 -41.583549 -3.093654 2.302922 0.385870 -0.186040 0.280490 0.076680 14.769056 -16.015686 1.834830 58.625650 -21.161893 -14.616326 102.547046 59.674596 56.337232 2.424133 -1.720595 -0.003170 0.156270 -0.172390 -0.150250 
